# Blender v2.79 (sub 0) OBJ File: 'diamond.blend'
# www.blender.org
g Cube
v -0.257977 0.429117 0.622812
v 0.000000 0.151272 1.000000
v 0.000000 -0.740932 -0.000000
v 0.707107 0.151272 0.707107
v -0.622812 0.429117 0.257977
v 1.000000 0.151272 -0.000000
v -0.622812 0.429117 -0.257977
v 0.707107 0.151272 -0.707107
v -0.257977 0.429117 -0.622812
v -0.000000 0.151272 -1.000000
v 0.257977 0.429117 -0.622812
v -0.707107 0.151272 -0.707107
v 0.622812 0.429117 -0.257977
v -1.000000 0.151272 0.000000
v 0.622812 0.429117 0.257977
v -0.707107 0.151272 0.707107
v 0.257977 0.429117 0.622812
vt 0.597148 0.177478
vt 0.507145 0.196596
vt 0.580197 0.087042
vt 0.522802 0.968202
vt 0.588641 0.747235
vt 0.654479 0.968202
vt 0.950734 0.283525
vt 0.874604 0.231850
vt 0.924435 0.154501
vt 0.764682 0.896132
vt 0.701755 0.036421
vt 0.665685 0.121067
vt 0.817469 0.775499
vt 0.580197 0.437827
vt 0.665685 0.403801
vt 0.701755 0.488447
vt 0.598736 0.516890
vt 0.471016 0.548929
vt 0.597148 0.347391
vt 0.507145 0.328273
vt 0.571420 0.262434
vt 0.832428 0.153743
vt 0.830974 0.061744
vt 0.381661 0.645647
vt 0.866363 0.320233
vt 0.754004 0.112158
vt 0.359813 0.775499
vt 0.412599 0.896132
vt 0.112034 0.487957
vt 0.200801 0.487957
vt 0.200801 0.702259
vt 0.112034 0.702259
vt 0.263569 0.639491
vt 0.263568 0.550724
vt 0.049266 0.550724
vt 0.049266 0.639491
vn -0.6871 0.6685 0.2846
vn 0.2658 -0.7193 0.6418
vn 0.6871 0.6685 -0.2846
vn 0.6418 -0.7193 0.2658
vn -0.2846 0.6685 0.6871
vn 0.6418 -0.7193 -0.2658
vn 0.2846 0.6685 -0.6871
vn 0.2658 -0.7193 -0.6418
vn -0.4194 0.8051 -0.4194
vn 0.6871 0.6685 0.2846
vn -0.2658 -0.7193 -0.6418
vn 0.4194 0.8051 -0.4194
vn 0.2846 0.6685 0.6871
vn -0.6418 -0.7193 -0.2658
vn -0.2846 0.6685 -0.6871
vn -0.6418 -0.7193 0.2658
vn 0.5931 0.8051 -0.0000
vn -0.2658 -0.7193 0.6418
vn 0.0000 0.8051 -0.5931
vn -0.6871 0.6685 -0.2846
vn -0.5931 0.8051 0.0000
vn -0.4194 0.8051 0.4194
vn 0.0000 0.8051 0.5931
vn 0.4194 0.8051 0.4194
vn 0.0000 1.0000 0.0000
s off
f 5/1/1 14/2/1 16/3/1
f 2/4/2 3/5/2 4/6/2
f 8/7/3 13/8/3 6/9/3
f 4/6/4 3/5/4 6/10/4
f 16/3/5 2/11/5 1/12/5
f 6/10/6 3/5/6 8/13/6
f 10/14/7 11/15/7 8/16/7
f 8/17/8 3/5/8 10/18/8
f 9/19/9 12/20/9 7/21/9
f 6/9/10 15/22/10 4/23/10
f 10/18/11 3/5/11 12/24/11
f 8/7/12 11/25/12 13/8/12
f 2/11/13 4/23/13 17/26/13
f 12/24/14 3/5/14 14/27/14
f 12/20/15 9/19/15 10/14/15
f 14/27/16 3/5/16 16/28/16
f 15/22/17 6/9/17 13/8/17
f 16/28/18 3/5/18 2/4/18
f 11/15/19 10/14/19 9/19/19
f 7/21/20 12/20/20 14/2/20
f 14/2/21 5/1/21 7/21/21
f 1/12/22 5/1/22 16/3/22
f 17/26/23 1/12/23 2/11/23
f 15/22/24 17/26/24 4/23/24
f 1/29/25 17/30/25 11/31/25 9/32/25
f 13/33/25 11/31/25 17/30/25 15/34/25
f 5/35/25 1/29/25 9/32/25 7/36/25
