# Blender v2.79 (sub 0) OBJ File: 'medkit.blend'
# www.blender.org
g Cube
v 0.600000 0.600000 0.500000
v 0.600000 0.200000 0.500000
v 0.600000 -0.200000 0.500000
v 0.600000 -0.600000 0.500000
v 0.200000 0.600000 0.500000
v 0.200000 0.200000 0.500000
v 0.200000 -0.200000 0.500000
v 0.200000 -0.600000 0.500000
v -0.200000 0.600000 0.500000
v -0.200000 0.200000 0.500000
v -0.200000 -0.200000 0.500000
v -0.200000 -0.600000 0.500000
v -0.600000 0.600000 0.500000
v -0.600000 0.200000 0.500000
v -0.600000 -0.200000 0.500000
v -0.600000 -0.600000 0.500000
v 0.600000 -0.600000 -0.500000
v 0.600000 -0.200000 -0.500000
v 0.600000 0.200000 -0.500000
v 0.600000 0.600000 -0.500000
v 0.200000 -0.600000 -0.500000
v 0.200000 -0.200000 -0.500000
v 0.200000 0.200000 -0.500000
v 0.200000 0.600000 -0.500000
v -0.200000 -0.600000 -0.500000
v -0.200000 -0.200000 -0.500000
v -0.200000 0.200000 -0.500000
v -0.200000 0.600000 -0.500000
v -0.600000 -0.600000 -0.500000
v -0.600000 -0.200000 -0.500000
v -0.600000 0.200000 -0.500000
v -0.600000 0.600000 -0.500000
v 0.600000 0.200000 0.636557
v 0.600000 -0.200000 0.636557
v 0.200000 0.600000 0.636557
v 0.200000 0.200000 0.636557
v 0.200000 -0.200000 0.636557
v 0.200000 -0.600000 0.636557
v -0.200000 0.600000 0.636557
v -0.200000 0.200000 0.636557
v -0.200000 -0.200000 0.636557
v -0.200000 -0.600000 0.636557
v -0.600000 0.200000 0.636557
v -0.600000 -0.200000 0.636557
v 0.599999 -0.920000 0.500000
v 0.200000 -0.920000 0.500000
v -0.200000 -0.920000 0.500000
v -0.600000 -0.920000 0.500000
v 0.600000 -0.920000 -0.500000
v 0.200000 -0.920000 -0.500000
v -0.200000 -0.920000 -0.500000
v -0.600000 -0.920000 -0.500000
v 0.920000 0.600000 -0.500000
v 0.920000 0.200000 -0.500000
v 0.920000 -0.200000 -0.500000
v 0.920000 -0.600000 -0.500000
v 0.920000 0.599999 0.500000
v 0.920000 0.199999 0.500000
v 0.920000 -0.200001 0.500000
v 0.920000 -0.600001 0.500000
v 0.920000 -0.920000 -0.500000
v 0.919999 -0.920001 0.500000
v 0.600000 0.920000 -0.500000
v 0.200000 0.920000 -0.500000
v -0.200000 0.920000 -0.500000
v -0.600000 0.920000 -0.500000
v 0.600000 0.920000 0.500000
v 0.200000 0.920000 0.500000
v -0.200000 0.920000 0.500000
v -0.600000 0.920000 0.500000
v 0.920000 0.919999 0.500000
v 0.920000 0.920000 -0.500000
v -0.920000 0.600000 0.500000
v -0.920000 0.200000 0.500000
v -0.920000 -0.200000 0.500000
v -0.920000 -0.600000 0.500000
v -0.920000 0.600000 -0.500000
v -0.920000 0.200000 -0.500000
v -0.920000 -0.200000 -0.500000
v -0.920000 -0.600000 -0.500000
v -0.920000 -0.920000 0.500000
v -0.920000 -0.920000 -0.500000
v -0.920000 0.920000 -0.500000
v -0.920000 0.920000 0.500000
v 0.600000 1.000000 0.425490
v 0.200000 1.000000 0.425490
v -0.200000 1.000000 0.425490
v -0.600000 1.000000 0.425490
v 0.599999 -1.000000 0.425490
v 0.200000 -1.000000 0.425490
v -0.200000 -1.000000 0.425490
v -0.600000 -1.000000 0.425490
v -1.000000 -0.600000 0.425490
v -1.000000 -0.200000 0.425490
v -1.000000 0.200000 0.425490
v -1.000000 0.600000 0.425490
v 1.000000 0.599999 0.425490
v 1.000000 0.199999 0.425490
v 1.000000 -0.200001 0.425490
v 1.000000 -0.600001 0.425490
v -1.000000 -0.920000 0.425490
v 0.999999 -0.920001 0.425490
v 0.919999 -1.000001 0.425490
v 0.920000 1.000000 0.425490
v 1.000000 0.920000 0.425490
v -1.000000 0.920000 0.425490
v -0.920000 1.000000 0.425490
v -0.920000 -1.000000 0.425490
v 0.600000 -1.000000 -0.407451
v 0.200000 -1.000000 -0.407451
v -0.200000 -1.000000 -0.407451
v -0.600000 -1.000000 -0.407451
v -1.000000 -0.600000 -0.407451
v -1.000000 -0.200000 -0.407451
v -1.000000 0.200000 -0.407451
v -1.000000 0.600000 -0.407451
v 1.000000 0.600000 -0.407451
v 1.000000 0.200000 -0.407451
v 1.000000 -0.200000 -0.407451
v 1.000000 -0.600000 -0.407451
v -1.000000 -0.920000 -0.407451
v 1.000000 -0.920000 -0.407451
v 0.920000 -1.000000 -0.407451
v 1.000000 0.920000 -0.407451
v -1.000000 0.920000 -0.407451
v -0.920000 -1.000000 -0.407451
v 0.600000 1.000000 -0.407451
v 0.200000 1.000000 -0.407451
v -0.200000 1.000000 -0.407451
v -0.600000 1.000000 -0.407451
v 0.920000 1.000000 -0.407451
v -0.920000 1.000000 -0.407451
vt 0.651144 0.576299
vt 0.737880 0.576299
vt 0.737880 0.635521
vt 0.651144 0.635521
vt 0.824616 0.576299
vt 0.824616 0.635521
vt 0.591922 0.808993
vt 0.591922 0.722257
vt 0.651144 0.722257
vt 0.651144 0.808993
vt 0.911352 0.576299
vt 0.911352 0.635521
vt 0.970574 0.635521
vt 0.970574 0.722257
vt 0.911352 0.722257
vt 0.737880 0.808993
vt 0.737880 0.722257
vt 0.824616 0.895729
vt 0.737880 0.895729
vt 0.824616 0.808993
vt 0.824616 0.722257
vt 0.911352 0.808993
vt 0.824616 0.954951
vt 0.737880 0.954951
vt 0.591922 0.895729
vt 0.651144 0.895729
vt 0.911352 0.954951
vt 0.911352 0.895729
vt 0.970574 0.808993
vt 0.651144 0.954951
vt 0.591922 0.635521
vt 0.970574 0.895729
vt 0.539620 0.510277
vt 0.526542 0.514099
vt 0.526542 0.489816
vt 0.526542 0.735076
vt 0.488007 0.735076
vt 0.488007 0.714708
vt 0.526542 0.714708
vt 0.540167 0.022980
vt 0.578702 0.022980
vt 0.578702 0.043347
vt 0.540167 0.043347
vt 0.108300 0.022979
vt 0.108300 0.043347
vt 0.069765 0.043347
vt 0.069765 0.022979
vt 0.304966 0.268239
vt 0.291889 0.247778
vt 0.304966 0.243956
vt 0.488007 0.268239
vt 0.439839 0.268239
vt 0.439839 0.243956
vt 0.488007 0.243956
vt 0.391670 0.268239
vt 0.391670 0.243956
vt 0.343501 0.268239
vt 0.343501 0.243956
vt 0.488007 0.514099
vt 0.488007 0.489816
vt 0.439838 0.735076
vt 0.439838 0.714708
vt 0.391669 0.735076
vt 0.391669 0.714708
vt 0.343500 0.735076
vt 0.343500 0.714708
vt 0.539382 0.719265
vt 0.439838 0.514099
vt 0.439838 0.489816
vt 0.391669 0.514099
vt 0.391669 0.489816
vt 0.343501 0.514098
vt 0.343501 0.489816
vt 0.540167 0.268239
vt 0.540167 0.243956
vt 0.578702 0.243956
vt 0.578702 0.268239
vt 0.391670 0.306774
vt 0.343501 0.306774
vt 0.391670 0.354943
vt 0.343501 0.354943
vt 0.391670 0.403112
vt 0.343501 0.403112
vt 0.391670 0.451281
vt 0.343501 0.451281
vt 0.439839 0.306774
vt 0.439838 0.354943
vt 0.439838 0.403112
vt 0.439838 0.451281
vt 0.488007 0.306774
vt 0.488007 0.354943
vt 0.488007 0.403112
vt 0.488007 0.451281
vt 0.526542 0.268239
vt 0.526542 0.306774
vt 0.526542 0.354943
vt 0.526542 0.403112
vt 0.526542 0.451281
vt 0.391669 0.956653
vt 0.343500 0.956653
vt 0.343500 0.918118
vt 0.391669 0.918118
vt 0.343500 0.869949
vt 0.391669 0.869949
vt 0.391669 0.821780
vt 0.343500 0.821780
vt 0.343500 0.773611
vt 0.391669 0.773611
vt 0.439838 0.956653
vt 0.439838 0.918118
vt 0.488007 0.956653
vt 0.488007 0.918118
vt 0.439838 0.869949
vt 0.488007 0.869949
vt 0.488007 0.821780
vt 0.439838 0.821780
vt 0.439838 0.773611
vt 0.488007 0.773611
vt 0.526542 0.956653
vt 0.526542 0.918118
vt 0.526542 0.869949
vt 0.526542 0.821780
vt 0.526542 0.773611
vt 0.156469 0.022979
vt 0.156469 0.043347
vt 0.204638 0.022979
vt 0.204638 0.043347
vt 0.252807 0.022979
vt 0.252807 0.043347
vt 0.304965 0.714708
vt 0.304965 0.735076
vt 0.292125 0.719265
vt 0.626871 0.022980
vt 0.626871 0.043347
vt 0.675040 0.022980
vt 0.675040 0.043347
vt 0.723209 0.022980
vt 0.723209 0.043347
vt 0.761744 0.022980
vt 0.761744 0.043347
vt 0.056141 0.243956
vt 0.056141 0.043347
vt 0.069765 0.243956
vt 0.539620 0.247778
vt 0.526543 0.243956
vt 0.723208 0.243956
vt 0.761743 0.243956
vt 0.761743 0.268239
vt 0.723208 0.268239
vt 0.204638 0.243956
vt 0.252806 0.243956
vt 0.252806 0.268239
vt 0.204638 0.268239
vt 0.156469 0.243956
vt 0.156469 0.268239
vt 0.291342 0.022979
vt 0.291342 0.043347
vt 0.108300 0.243956
vt 0.108300 0.268238
vt 0.304965 0.514098
vt 0.291888 0.510276
vt 0.304965 0.489816
vt 0.069765 0.268238
vt 0.675039 0.243956
vt 0.675039 0.268239
vt 0.626871 0.243956
vt 0.626871 0.268239
vt 0.291342 0.243956
vt 0.291341 0.268239
vt 0.488007 0.977021
vt 0.439838 0.977021
vt 0.391669 0.977021
vt 0.343500 0.977021
vt 0.526542 0.977021
vt 0.539382 0.972464
vt 0.526543 0.043347
vt 0.304966 0.451281
vt 0.304965 0.773611
vt 0.304966 0.403112
vt 0.304966 0.354943
vt 0.304966 0.306774
vt 0.304965 0.821780
vt 0.304965 0.869949
vt 0.304965 0.918118
vt 0.304965 0.956653
vt 0.775368 0.043347
vt 0.775367 0.243956
vt 0.304966 0.043347
vt 0.304965 0.977021
vt 0.292125 0.972464
vt 0.343501 0.043347
vt 0.391670 0.043347
vt 0.439839 0.043347
vt 0.488008 0.043347
vn -1.0000 0.0000 0.0000
vn -0.0000 -1.0000 0.0000
vn 1.0000 -0.0000 0.0000
vn -0.0000 0.0000 1.0000
vn 0.0000 1.0000 0.0000
vn 0.6033 -0.6033 -0.5215
vn -0.0000 -0.6816 0.7318
vn 0.6816 -0.0000 0.7318
vn -0.6816 0.0000 0.7318
vn -0.6033 0.6033 -0.5215
vn 0.0000 0.7565 -0.6540
vn 0.0000 -0.7565 -0.6540
vn 0.5632 -0.5632 0.6047
vn 0.7565 0.0000 -0.6540
vn 0.0000 0.0000 -1.0000
vn -0.5632 -0.5632 0.6047
vn -0.7071 -0.7071 -0.0000
vn 0.6033 0.6033 -0.5215
vn -0.7565 0.0000 -0.6540
vn -0.6033 -0.6033 -0.5215
vn 0.0000 0.6816 0.7318
vn 0.5632 0.5632 0.6047
vn 0.7071 0.7071 0.0000
vn 0.7071 -0.7071 0.0000
vn -0.7071 0.7071 -0.0000
vn -0.5632 0.5632 0.6047
s off
f 11/1/1 12/2/1 42/3/1 41/4/1
f 12/2/2 8/5/2 38/6/2 42/3/2
f 14/7/1 15/8/1 44/9/1 43/10/1
f 8/5/3 7/11/3 37/12/3 38/6/3
f 7/13/2 3/14/2 34/15/2 37/12/2
f 40/16/4 43/10/4 44/9/4 41/17/4
f 35/18/4 39/19/4 40/16/4 36/20/4
f 36/20/4 40/16/4 41/17/4 37/21/4
f 37/21/4 41/17/4 42/3/4 38/6/4
f 33/22/4 36/20/4 37/21/4 34/15/4
f 5/23/5 9/24/5 39/19/5 35/18/5
f 10/25/5 14/7/5 43/10/5 40/26/5
f 6/27/3 5/23/3 35/18/3 36/28/3
f 3/14/3 2/29/3 33/22/3 34/15/3
f 9/24/1 10/30/1 40/26/1 39/19/1
f 15/8/2 11/31/2 41/4/2 44/9/2
f 2/29/5 6/32/5 36/28/5 33/22/5
f 122/33/6 123/34/6 61/35/6
f 62/36/7 45/37/7 89/38/7 103/39/7
f 71/40/8 57/41/8 97/42/8 105/43/8
f 76/44/9 93/45/9 101/46/9 81/47/9
f 83/48/10 125/49/10 132/50/10
f 63/51/11 64/52/11 128/53/11 127/54/11
f 64/52/11 65/55/11 129/56/11 128/53/11
f 65/55/11 66/57/11 130/58/11 129/56/11
f 61/35/12 123/34/12 109/59/12 49/60/12
f 45/37/7 46/61/7 90/62/7 89/38/7
f 46/61/7 47/63/7 91/64/7 90/62/7
f 47/63/7 48/65/7 92/66/7 91/64/7
f 62/36/13 103/39/13 102/67/13
f 109/59/12 110/68/12 50/69/12 49/60/12
f 110/68/12 111/70/12 51/71/12 50/69/12
f 111/70/12 112/72/12 52/73/12 51/71/12
f 72/74/14 124/75/14 117/76/14 53/77/14
f 65/55/15 28/78/15 32/79/15 66/57/15
f 28/78/15 27/80/15 31/81/15 32/79/15
f 27/80/15 26/82/15 30/83/15 31/81/15
f 26/82/15 25/84/15 29/85/15 30/83/15
f 64/52/15 24/86/15 28/78/15 65/55/15
f 24/86/15 23/87/15 27/80/15 28/78/15
f 23/87/15 22/88/15 26/82/15 27/80/15
f 22/88/15 21/89/15 25/84/15 26/82/15
f 63/51/15 20/90/15 24/86/15 64/52/15
f 20/90/15 19/91/15 23/87/15 24/86/15
f 19/91/15 18/92/15 22/88/15 23/87/15
f 18/92/15 17/93/15 21/89/15 22/88/15
f 72/94/15 53/95/15 20/90/15 63/51/15
f 53/95/15 54/96/15 19/91/15 20/90/15
f 54/96/15 55/97/15 18/92/15 19/91/15
f 55/97/15 56/98/15 17/93/15 18/92/15
f 69/99/4 70/100/4 13/101/4 9/102/4
f 9/102/4 13/101/4 14/103/4 10/104/4
f 11/105/4 15/106/4 16/107/4 12/108/4
f 68/109/4 69/99/4 9/102/4 5/110/4
f 67/111/4 68/109/4 5/110/4 1/112/4
f 1/112/4 5/110/4 6/113/4 2/114/4
f 3/115/4 7/116/4 8/117/4 4/118/4
f 71/119/4 67/111/4 1/112/4 57/120/4
f 57/120/4 1/112/4 2/114/4 58/121/4
f 58/121/4 2/114/4 3/115/4 59/122/4
f 59/122/4 3/115/4 4/118/4 60/123/4
f 75/124/9 94/125/9 93/45/9 76/44/9
f 74/126/9 95/127/9 94/125/9 75/124/9
f 73/128/9 96/129/9 95/127/9 74/126/9
f 108/130/16 81/131/16 101/132/16
f 57/41/8 58/133/8 98/134/8 97/42/8
f 58/133/8 59/135/8 99/136/8 98/134/8
f 59/135/8 60/137/8 100/138/8 99/136/8
f 60/137/8 62/139/8 102/140/8 100/138/8
f 126/141/17 108/142/17 101/46/17 121/143/17
f 124/144/18 72/94/18 131/145/18
f 120/146/14 122/147/14 61/148/14 56/149/14
f 115/150/19 116/151/19 77/152/19 78/153/19
f 114/154/19 115/150/19 78/153/19 79/155/19
f 96/129/9 73/128/9 84/156/9 106/157/9
f 25/84/15 51/71/15 52/73/15 29/85/15
f 21/89/15 50/69/15 51/71/15 25/84/15
f 17/93/15 49/60/15 50/69/15 21/89/15
f 56/98/15 61/35/15 49/60/15 17/93/15
f 12/108/4 16/107/4 48/65/4 47/63/4
f 8/117/4 12/108/4 47/63/4 46/61/4
f 4/118/4 8/117/4 46/61/4 45/37/4
f 60/123/4 4/118/4 45/37/4 62/36/4
f 113/158/19 114/154/19 79/155/19 80/159/19
f 126/160/20 121/161/20 82/162/20
f 121/143/19 113/158/19 80/159/19 82/163/19
f 119/164/14 120/146/14 56/149/14 55/165/14
f 118/166/14 119/164/14 55/165/14 54/167/14
f 117/76/14 118/166/14 54/167/14 53/77/14
f 116/151/19 125/168/19 83/169/19 77/152/19
f 48/65/7 81/131/7 108/130/7 92/66/7
f 130/58/11 66/57/11 83/48/11 132/50/11
f 72/94/11 63/51/11 127/54/11 131/145/11
f 85/170/21 86/171/21 68/109/21 67/111/21
f 86/171/21 87/172/21 69/99/21 68/109/21
f 87/172/21 88/173/21 70/100/21 69/99/21
f 104/174/22 71/119/22 105/175/22
f 124/75/23 131/145/23 104/176/23 105/43/23
f 112/72/12 126/160/12 82/162/12 52/73/12
f 29/85/15 52/73/15 82/162/15 80/177/15
f 16/107/4 76/178/4 81/131/4 48/65/4
f 30/83/15 29/85/15 80/177/15 79/179/15
f 31/81/15 30/83/15 79/179/15 78/180/15
f 32/79/15 31/81/15 78/180/15 77/181/15
f 66/57/15 32/79/15 77/181/15 83/48/15
f 15/106/4 75/182/4 76/178/4 16/107/4
f 14/103/4 74/183/4 75/182/4 15/106/4
f 13/101/4 73/184/4 74/183/4 14/103/4
f 70/100/4 84/185/4 73/184/4 13/101/4
f 122/147/24 102/140/24 103/186/24 123/187/24
f 112/72/2 92/66/2 108/130/2 126/160/2
f 116/151/1 96/129/1 106/157/1 125/168/1
f 107/188/25 132/50/25 125/168/25 106/157/25
f 88/173/21 107/189/21 84/185/21 70/100/21
f 120/146/3 100/138/3 102/140/3 122/147/3
f 119/164/3 99/136/3 100/138/3 120/146/3
f 118/166/3 98/134/3 99/136/3 119/164/3
f 117/76/3 97/42/3 98/134/3 118/166/3
f 124/75/3 105/43/3 97/42/3 117/76/3
f 115/150/1 95/127/1 96/129/1 116/151/1
f 114/154/1 94/125/1 95/127/1 115/150/1
f 113/158/1 93/45/1 94/125/1 114/154/1
f 121/143/1 101/46/1 93/45/1 113/158/1
f 111/70/2 91/64/2 92/66/2 112/72/2
f 110/68/2 90/62/2 91/64/2 111/70/2
f 109/59/2 89/38/2 90/62/2 110/68/2
f 123/34/2 103/39/2 89/38/2 109/59/2
f 104/174/21 85/170/21 67/111/21 71/119/21
f 107/189/26 106/190/26 84/185/26
f 88/191/5 130/58/5 132/50/5 107/188/5
f 87/192/5 129/56/5 130/58/5 88/191/5
f 86/193/5 128/53/5 129/56/5 87/192/5
f 85/194/5 127/54/5 128/53/5 86/193/5
f 104/176/5 131/145/5 127/54/5 85/194/5
