<svg id="Layer_1" data-name="Layer 1" xmlns="http://www.w3.org/2000/svg" viewBox="0 0 801.19 565.93"><defs><style>.cls-1{stroke:#000;stroke-miterlimit:10;}</style></defs><title>rock</title><path class="cls-1" d="M9741.87,597.24c-21.88,17.89-66.88,23-72.18,48.46a105.58,105.58,0,0,0-.43,12.85c.09,4.32.33,8.67.51,13-.08,30.15,13.16,62.41-8,87.87-19.85,22.29-58.32,18.71-98,15-7.93-.74-15.9-1.53-23.7-2.35-34.44-6.32-68.21-14.58-102-17.43-8.44-.72-16.88-1.09-25.31-1-26.32.71-52.79,5.8-74,16-5.29,1.7-15.88,3.4-21.18,1.7-31.76-13.58-10.58-47.54-50.29-54.33a159.08,159.08,0,0,0-22.27-2.19c-7.55-.26-15.19-.1-22.83.27q-17.85,4.9-35.94,8-6,1-12.05,1.87C9145,733,9136,693,9113,692c-15-2-19,23-35,31-4,2-7,1-11.4,1q-5.84-.93-11.62-2.06a326.38,326.38,0,0,1-87.78-30.26c-7.82-3.28-14.36-7-17.28-12-1.94-3.35-2.27-7.27-.29-11.94,2.65-5.1,6-10.61,8.61-16.34a73.56,73.56,0,0,0,3.4-8.73C8964,626,8980,617,8991,606c2-3,5-5,5-9-3-18-29-27-23-46.75a50.27,50.27,0,0,1,3.47-9,146.23,146.23,0,0,1,10.22-17.84c7.95-13.59-2.64-28.87-7.61-43.32a157.59,157.59,0,0,1-5.65-15.37c-3.12-10.29-4.61-20.69-2.62-31.3a30.74,30.74,0,0,1,7.35-14.88c21.81-11.09,43-8.38,64.32-1.66a90.32,90.32,0,0,1,10.73,4.06c5.79,2,9.79,6,14.79,9,18,15,27,44,49,44,15,0,17-28,35.44-33.24,2.2-.7,4.34-1.36,6.33-2.21C9193.18,425,9206.42,391,9254.46,394c7.86,0,15.69.12,23.44.38,10.58,1.7,23.82-1.7,29.94-9.55a60.47,60.47,0,0,0,12.79-15.35,57.55,57.55,0,0,0,6.35-16.46,109.8,109.8,0,0,0,2.18-16.53c.72-3.93,1.54-7.87,2.4-11.82s2-7.94,3-11.93c1.58-38.91-36.81-100.89,42.61-95.79,58.24-17,5.29,17,22.5,24.62,38.39,38.2,143-30.56,153.54,13.58,5.3,30.56-37.06,54.33-36.33,85.33-1,5.18-2.38,10.42-3.64,15.64-5,20.9-8.56,41.65,16.15,58.63,31.76,18.68,79.42,10.19,119.13,13.59,29.12,1.69,42.35,22.07,58.56,37.09a58.85,58.85,0,0,1,10.25,11.94c12.33,19,13.94,44.55,18.72,68.45,1,4.78,2.05,9.49,3.35,14.06,1.77,7.68,7.06,16.17,9.08,23.86A22.94,22.94,0,0,1,9741.87,597.24Z" transform="translate(-8947.79 -211.78)"/></svg>