# Blender v2.79 (sub 0) OBJ File: 'map1.blend'
# www.blender.org
g Plane
v 1.000000 1.000000 -0.000000
v 1.000000 -1.000000 -0.000000
v -0.966506 1.000000 0.125000
v -0.966506 -1.000000 0.125000
v -0.533494 1.000000 -0.125000
v 0.033494 1.000000 0.125000
v 0.466506 1.000000 -0.125000
v 0.466506 -1.000000 -0.125000
v 0.033494 -1.000000 0.125000
v -0.533494 -1.000000 -0.125000
vt 0.762015 0.955087
vt 0.762014 0.072256
vt 0.982722 0.072256
vt 0.982722 0.955087
vt 0.025911 0.955088
vt 0.025910 0.072256
vt 0.267780 0.072256
vt 0.267781 0.955087
vt 0.488488 0.072256
vt 0.488488 0.955087
vn -0.5000 -0.0000 -0.8660
vn 0.2281 0.0000 -0.9736
vn 0.4034 0.0000 -0.9150
s off
f 5/1/1 10/2/1 4/3/1 3/4/1
f 1/5/2 2/6/2 8/7/2 7/8/2
f 7/8/1 8/7/1 9/9/1 6/10/1
f 6/10/3 9/9/3 10/2/3 5/1/3
