# Blender v2.79 (sub 0) OBJ File: 'banana.blend'
# www.blender.org
g Cube
v 0.119647 -3.052770 -0.303686
v 0.119647 -3.150672 -0.085337
v -0.119647 -3.150672 -0.085337
v -0.119647 -3.052770 -0.303686
v 0.100025 2.848674 -0.559860
v 0.141076 3.002991 -0.369600
v -0.103500 3.017801 -0.328842
v -0.144551 2.863484 -0.519102
v 0.211454 -2.483163 -0.211454
v 0.387671 -1.862372 -0.242772
v 0.548322 -1.241581 -0.235196
v 0.682226 -0.620791 -0.254178
v 0.770135 0.000000 -0.292815
v 0.722961 0.620791 -0.290286
v 0.630555 1.241581 -0.270834
v 0.427143 1.862372 -0.320997
v 0.227909 2.483163 -0.381350
v 0.211454 -2.483163 0.211454
v 0.387671 -1.862372 0.532570
v 0.548322 -1.241581 0.861447
v 0.682226 -0.620791 1.110274
v 0.770135 0.000000 1.247455
v 0.722961 0.620791 1.155636
v 0.630555 1.241581 0.990276
v 0.427143 1.862372 0.533289
v 0.227909 2.483163 0.074469
v -0.211454 -2.483163 0.211454
v -0.387671 -1.862372 0.532570
v -0.548322 -1.241581 0.861447
v -0.682226 -0.620791 1.110274
v -0.770135 0.000000 1.247455
v -0.722961 0.620791 1.155636
v -0.630555 1.241581 0.990275
v -0.427143 1.862372 0.533288
v -0.227909 2.483163 0.074468
v -0.211454 -2.483163 -0.211454
v -0.387671 -1.862372 -0.242773
v -0.548322 -1.241581 -0.235197
v -0.682226 -0.620791 -0.254179
v -0.770135 0.000000 -0.292816
v -0.722961 0.620791 -0.290287
v -0.630555 1.241581 -0.270835
v -0.427143 1.862372 -0.320997
v -0.227909 2.483163 -0.381350
v 0.155358 -3.080534 -0.241765
v 0.155358 -3.122909 -0.147258
v -0.155358 -3.122909 -0.147258
v -0.155358 -3.080534 -0.241765
v 0.148166 2.890226 -0.511987
v 0.165934 2.957018 -0.429638
v -0.151641 2.976249 -0.376715
v -0.169409 2.909456 -0.459064
v -0.274567 -2.483163 0.091522
v -0.274567 -2.483163 -0.091523
v -0.503381 -1.862372 0.312692
v -0.503381 -1.862372 -0.022895
v -0.711982 -1.241581 0.550452
v -0.711981 -1.241581 0.075798
v -0.885853 -0.620791 0.723332
v -0.885853 -0.620791 0.132763
v -1.000000 0.000000 0.810653
v -1.000000 0.000000 0.143986
v -0.938746 0.620791 0.745590
v -0.938746 0.620791 0.119759
v -0.818759 1.241581 0.632640
v -0.818759 1.241581 0.086801
v -0.554634 1.862372 0.291023
v -0.554634 1.862372 -0.078732
v -0.295934 2.483163 -0.054796
v -0.295934 2.483163 -0.252086
v 0.274567 -2.483163 -0.091522
v 0.274567 -2.483163 0.091522
v 0.503381 -1.862372 -0.022895
v 0.503381 -1.862372 0.312693
v 0.711981 -1.241581 0.075798
v 0.711981 -1.241581 0.550453
v 0.885853 -0.620791 0.132764
v 0.885853 -0.620791 0.723332
v 1.000000 0.000000 0.143987
v 1.000000 0.000000 0.810653
v 0.938746 0.620791 0.119760
v 0.938746 0.620791 0.745591
v 0.818759 1.241581 0.086801
v 0.818759 1.241581 0.632641
v 0.554634 1.862372 -0.078732
v 0.554634 1.862372 0.291024
v 0.295934 2.483163 -0.252085
v 0.295934 2.483163 -0.054796
v 0.051786 -3.038160 -0.336272
v -0.051786 -3.038160 -0.336272
v 0.051786 -3.165283 -0.052751
v -0.051786 -3.165283 -0.052751
v 0.024540 2.829844 -0.576696
v -0.081318 2.836254 -0.559054
v 0.077844 3.030221 -0.329648
v -0.028015 3.036631 -0.312007
v 0.098645 2.483163 -0.449375
v -0.098645 2.483163 -0.449375
v 0.184878 1.862372 -0.448488
v -0.184878 1.862372 -0.448488
v 0.272920 1.241581 -0.459038
v -0.272920 1.241581 -0.459039
v 0.312916 0.620791 -0.506071
v -0.312915 0.620791 -0.506071
v 0.333334 0.000000 -0.522680
v -0.333333 0.000000 -0.522680
v 0.295284 -0.620791 -0.457805
v -0.295284 -0.620791 -0.457805
v 0.237327 -1.241581 -0.398856
v -0.237327 -1.241581 -0.398856
v 0.167794 -1.862372 -0.358482
v -0.167794 -1.862372 -0.358482
v 0.091522 -2.483163 -0.274567
v -0.091522 -2.483163 -0.274567
v 0.091522 -2.483163 0.274567
v -0.091522 -2.483163 0.274567
v 0.167794 -1.862372 0.648280
v -0.167794 -1.862372 0.648280
v 0.237327 -1.241581 1.025107
v -0.237327 -1.241581 1.025107
v 0.295284 -0.620791 1.313901
v -0.295284 -0.620791 1.313900
v 0.333333 0.000000 1.477320
v -0.333334 0.000000 1.477320
v 0.312915 0.620791 1.371421
v -0.312916 0.620791 1.371421
v 0.272919 1.241581 1.178480
v -0.272920 1.241581 1.178480
v 0.184878 1.862372 0.660780
v -0.184878 1.862372 0.660779
v 0.098645 2.483163 0.142493
v -0.098645 2.483163 0.142493
v -0.056602 2.929167 -0.444500
v 0.049257 2.922757 -0.462141
v -0.038834 2.995960 -0.362151
v 0.067024 2.989550 -0.379792
v 0.051786 -3.089465 -0.221846
v -0.051786 -3.089465 -0.221846
v 0.051786 -3.131840 -0.127339
v -0.051786 -3.131840 -0.127339
vt 0.820244 0.081079
vt 0.820240 0.093052
vt 0.810301 0.087818
vt 0.805074 0.077876
vt 0.844075 0.229816
vt 0.828327 0.235974
vt 0.833757 0.225657
vt 0.844075 0.220227
vt 0.478033 0.870037
vt 0.449307 0.978863
vt 0.435095 0.975765
vt 0.458384 0.854523
vt 0.403278 0.842797
vt 0.401584 0.970419
vt 0.387391 0.968056
vt 0.379313 0.846411
vt 0.328659 0.878745
vt 0.353168 0.966857
vt 0.338765 0.969433
vt 0.308464 0.897199
vt 0.276670 0.109664
vt 0.327541 0.010545
vt 0.341260 0.016230
vt 0.299665 0.125455
vt 0.325408 0.975488
vt 0.287508 0.916079
vt 0.220487 0.819144
vt 0.256889 0.790319
vt 0.171406 0.723020
vt 0.226786 0.693581
vt 0.136320 0.627288
vt 0.203094 0.609253
vt 0.122911 0.528490
vt 0.196206 0.526445
vt 0.130624 0.426091
vt 0.198283 0.439903
vt 0.159477 0.320049
vt 0.214538 0.343952
vt 0.208397 0.215280
vt 0.246165 0.239800
vt 0.355780 0.019322
vt 0.323207 0.139877
vt 0.283923 0.259967
vt 0.264978 0.362353
vt 0.256851 0.449517
vt 0.257106 0.524649
vt 0.260460 0.596031
vt 0.275917 0.670607
vt 0.292267 0.765426
vt 0.405420 0.020690
vt 0.406867 0.167920
vt 0.381085 0.165071
vt 0.390624 0.021336
vt 0.407877 0.295752
vt 0.370529 0.292697
vt 0.409919 0.393483
vt 0.368627 0.390975
vt 0.411086 0.466083
vt 0.368892 0.464831
vt 0.411648 0.523263
vt 0.370549 0.523155
vt 0.410580 0.575819
vt 0.369693 0.577515
vt 0.410151 0.633482
vt 0.372333 0.636749
vt 0.407027 0.721901
vt 0.372330 0.725573
vt 0.454941 0.016384
vt 0.490923 0.148048
vt 0.467343 0.160113
vt 0.440215 0.018340
vt 0.531311 0.270250
vt 0.495116 0.286366
vt 0.550327 0.372942
vt 0.506905 0.386596
vt 0.557406 0.456034
vt 0.510381 0.463113
vt 0.556181 0.525034
vt 0.508732 0.523904
vt 0.553307 0.590450
vt 0.507381 0.581242
vt 0.539327 0.659184
vt 0.499533 0.643017
vt 0.520566 0.754585
vt 0.487840 0.735096
vt 0.595142 0.825811
vt 0.516733 0.919538
vt 0.501248 0.896968
vt 0.563662 0.791336
vt 0.650902 0.727020
vt 0.599421 0.692164
vt 0.693223 0.631562
vt 0.626407 0.609853
vt 0.707190 0.530215
vt 0.633904 0.527619
vt 0.699406 0.425751
vt 0.632039 0.441776
vt 0.667325 0.318767
vt 0.614478 0.346161
vt 0.615587 0.213437
vt 0.579765 0.240767
vt 0.542160 0.109675
vt 0.521199 0.127240
vt 0.488460 0.007358
vt 0.474504 0.012132
vt 0.357038 0.857562
vt 0.338399 0.738933
vt 0.333602 0.647755
vt 0.326447 0.583417
vt 0.326185 0.523321
vt 0.324481 0.459441
vt 0.326379 0.381251
vt 0.333739 0.281480
vt 0.356201 0.156280
vt 0.375768 0.021192
vt 0.372969 0.966596
vt 0.481261 0.991091
vt 0.468172 0.984847
vt 0.844075 0.267469
vt 0.833757 0.262040
vt 0.828327 0.251722
vt 0.844075 0.245563
vt 0.820255 0.047540
vt 0.820249 0.065908
vt 0.805079 0.062705
vt 0.810314 0.052767
vt 0.850592 0.062721
vt 0.850586 0.077892
vt 0.835415 0.081084
vt 0.835420 0.065913
vt 0.845364 0.052779
vt 0.835426 0.047545
vt 0.875570 0.251722
vt 0.859822 0.245563
vt 0.859822 0.229816
vt 0.875570 0.235974
vt 0.870140 0.262040
vt 0.859822 0.267469
vt 0.435514 0.846421
vt 0.453200 0.726122
vt 0.460800 0.635598
vt 0.465063 0.577017
vt 0.466155 0.522841
vt 0.467014 0.465371
vt 0.464894 0.392111
vt 0.457782 0.293819
vt 0.442027 0.166316
vt 0.425432 0.019499
vt 0.561899 0.090920
vt 0.650104 0.180531
vt 0.153803 0.177164
vt 0.246764 0.088090
vt 0.724035 0.281754
vt 0.075033 0.280932
vt 0.779812 0.399346
vt 0.019911 0.401866
vt 0.804876 0.532483
vt 0.000099 0.533192
vt 0.775274 0.664291
vt 0.026762 0.659030
vt 0.708530 0.774503
vt 0.084121 0.770285
vt 0.625594 0.866321
vt 0.166772 0.860441
vt 0.532441 0.942581
vt 0.257425 0.939730
vt 0.493028 0.999901
vt 0.309206 0.986950
vt 0.501517 0.000099
vt 0.310471 0.000099
vt 0.420847 0.973430
vt 0.859822 0.220227
vt 0.870140 0.225657
vt 0.845352 0.087830
vt 0.835410 0.093057
vn 0.0000 -0.9125 -0.4091
vn -0.0563 0.7813 -0.6216
vn 0.8445 0.4381 0.3080
vn -0.3488 0.6180 0.7046
vn -0.8930 0.0409 -0.4481
vn -0.4572 0.0679 -0.8868
vn -0.5007 -0.2142 -0.8387
vn -0.4648 0.0633 -0.8832
vn -0.4642 0.0808 -0.8820
vn -0.4635 0.0966 -0.8808
vn -0.4653 0.0390 -0.8843
vn -0.4623 -0.1201 -0.8785
vn -0.4620 -0.1265 -0.8778
vn -0.4629 -0.1091 -0.8797
vn -0.4586 -0.1741 -0.8714
vn -0.8735 -0.0575 -0.4835
vn -0.8533 -0.2649 -0.4491
vn -0.8637 -0.2180 -0.4545
vn -0.8669 -0.2009 -0.4562
vn -0.8746 -0.1525 -0.4603
vn -0.8828 0.0690 -0.4646
vn -0.8756 0.1448 -0.4608
vn -0.8580 0.2447 -0.4515
vn -0.8608 0.2322 -0.4530
vn -0.4390 -0.4120 0.7985
vn -0.4011 -0.5081 0.7622
vn -0.4012 -0.5077 0.7624
vn -0.4239 -0.4143 0.8054
vn -0.4505 -0.2530 0.8562
vn -0.4594 0.1640 0.8730
vn -0.4454 0.2918 0.8464
vn -0.3629 0.6266 0.6897
vn -0.3630 0.6264 0.6898
vn 0.8547 -0.3089 0.4173
vn 0.7940 -0.4415 0.4178
vn 0.7991 -0.4296 0.4205
vn 0.8279 -0.3532 0.4357
vn 0.8628 -0.2225 0.4540
vn 0.8769 0.1349 0.4614
vn 0.8573 0.2478 0.4512
vn 0.7478 0.5347 0.3935
vn 0.7494 0.5319 0.3943
vn 0.8608 0.2322 -0.4530
vn 0.9231 0.3847 0.0000
vn 0.8580 0.2447 -0.4515
vn 0.9202 0.3915 0.0000
vn 0.8756 0.1448 -0.4608
vn 0.9818 0.1898 0.0000
vn 0.8828 0.0690 -0.4646
vn 0.9952 0.0982 0.0000
vn 0.8746 -0.1525 -0.4603
vn 0.9835 -0.1808 0.0000
vn 0.8669 -0.2009 -0.4562
vn 0.9629 -0.2697 0.0000
vn 0.8637 -0.2180 -0.4545
vn 0.9479 -0.3185 0.0000
vn 0.8533 -0.2649 -0.4491
vn 0.9383 -0.3458 0.0000
vn 0.8735 -0.0575 -0.4835
vn 0.9831 -0.1808 -0.0276
vn -0.7494 0.5319 0.3943
vn -0.9231 0.3847 0.0000
vn -0.7478 0.5347 0.3935
vn -0.9202 0.3915 -0.0000
vn -0.8573 0.2478 0.4512
vn -0.9818 0.1898 -0.0000
vn -0.8769 0.1349 0.4614
vn -0.9952 0.0982 -0.0000
vn -0.8628 -0.2225 0.4540
vn -0.9835 -0.1808 -0.0000
vn -0.8279 -0.3532 0.4357
vn -0.9629 -0.2697 -0.0000
vn -0.7991 -0.4296 0.4205
vn -0.9479 -0.3185 -0.0000
vn -0.7940 -0.4415 0.4178
vn -0.9383 -0.3458 -0.0000
vn -0.8547 -0.3089 0.4173
vn -0.9831 -0.1808 -0.0276
vn -0.7794 0.4843 0.3975
vn -0.9601 0.2795 -0.0058
vn 0.8374 -0.0113 -0.5465
vn 0.9681 0.2226 -0.1147
vn 0.3630 0.6264 0.6898
vn -0.0000 0.6409 0.7676
vn 0.3629 0.6266 0.6897
vn -0.0000 0.6405 0.7680
vn 0.4454 0.2918 0.8464
vn -0.0000 0.2968 0.9549
vn 0.4594 0.1640 0.8730
vn -0.0000 0.1682 0.9858
vn 0.4505 -0.2530 0.8562
vn -0.0000 -0.2546 0.9671
vn 0.4239 -0.4143 0.8054
vn -0.0000 -0.4218 0.9067
vn 0.4012 -0.5077 0.7624
vn -0.0000 -0.5189 0.8548
vn 0.4011 -0.5081 0.7622
vn -0.0000 -0.5158 0.8567
vn 0.4390 -0.4120 0.7985
vn -0.0000 -0.4326 0.9016
vn 0.4586 -0.1741 -0.8714
vn 0.0000 -0.1340 -0.9910
vn 0.4629 -0.1091 -0.8797
vn 0.0000 -0.0649 -0.9979
vn 0.4620 -0.1265 -0.8778
vn 0.0000 -0.0945 -0.9955
vn 0.4623 -0.1201 -0.8785
vn 0.0000 -0.1039 -0.9946
vn 0.4653 0.0390 -0.8843
vn 0.0000 0.0267 -0.9996
vn 0.4635 0.0966 -0.8808
vn 0.0000 0.0755 -0.9971
vn 0.4642 0.0808 -0.8820
vn 0.0000 0.0170 -0.9999
vn 0.4648 0.0633 -0.8832
vn 0.0000 -0.0014 -1.0000
vn 0.3898 -0.2678 -0.8811
vn -0.0618 -0.3247 -0.9438
vn 0.4572 0.0679 -0.8868
vn 0.0000 0.1105 -0.9939
vn 0.4524 0.6068 0.6535
vn 0.0581 0.6415 0.7650
s off
f 140/1/1 92/2/1 3/3/1 47/4/1
f 135/5/2 51/6/2 7/7/2 96/8/2
f 88/9/3 50/10/3 6/11/3 26/12/3
f 132/13/4 96/14/4 7/15/4 35/16/4
f 70/17/5 52/18/5 8/19/5 44/20/5
f 114/21/6 90/22/6 4/23/6 36/24/6
f 94/25/7 98/26/7 44/20/7 8/19/7
f 98/26/8 100/27/8 43/28/8 44/20/8
f 100/27/9 102/29/9 42/30/9 43/28/9
f 102/29/10 104/31/10 41/32/10 42/30/10
f 104/31/11 106/33/11 40/34/11 41/32/11
f 106/33/12 108/35/12 39/36/12 40/34/12
f 108/35/13 110/37/13 38/38/13 39/36/13
f 110/37/14 112/39/14 37/40/14 38/38/14
f 112/39/15 114/21/15 36/24/15 37/40/15
f 48/41/16 54/42/16 36/24/16 4/23/16
f 54/42/17 56/43/17 37/40/17 36/24/17
f 56/43/18 58/44/18 38/38/18 37/40/18
f 58/44/19 60/45/19 39/36/19 38/38/19
f 60/45/20 62/46/20 40/34/20 39/36/20
f 62/46/21 64/47/21 41/32/21 40/34/21
f 64/47/22 66/48/22 42/30/22 41/32/22
f 66/48/23 68/49/23 43/28/23 42/30/23
f 68/49/24 70/17/24 44/20/24 43/28/24
f 92/50/25 116/51/25 27/52/25 3/53/25
f 116/51/26 118/54/26 28/55/26 27/52/26
f 118/54/27 120/56/27 29/57/27 28/55/27
f 120/56/28 122/58/28 30/59/28 29/57/28
f 122/58/29 124/60/29 31/61/29 30/59/29
f 124/60/30 126/62/30 32/63/30 31/61/30
f 126/62/31 128/64/31 33/65/31 32/63/31
f 128/64/32 130/66/32 34/67/32 33/65/32
f 130/66/33 132/13/33 35/16/33 34/67/33
f 46/68/34 72/69/34 18/70/34 2/71/34
f 72/69/35 74/72/35 19/73/35 18/70/35
f 74/72/36 76/74/36 20/75/36 19/73/36
f 76/74/37 78/76/37 21/77/37 20/75/37
f 78/76/38 80/78/38 22/79/38 21/77/38
f 80/78/39 82/80/39 23/81/39 22/79/39
f 82/80/40 84/82/40 24/83/40 23/81/40
f 84/82/41 86/84/41 25/85/41 24/83/41
f 86/84/42 88/9/42 26/12/42 25/85/42
f 16/86/43 17/87/43 87/88/43 85/89/43
f 85/89/44 87/88/44 88/9/44 86/84/44
f 15/90/45 16/86/45 85/89/45 83/91/45
f 83/91/46 85/89/46 86/84/46 84/82/46
f 14/92/47 15/90/47 83/91/47 81/93/47
f 81/93/48 83/91/48 84/82/48 82/80/48
f 13/94/49 14/92/49 81/93/49 79/95/49
f 79/95/50 81/93/50 82/80/50 80/78/50
f 12/96/51 13/94/51 79/95/51 77/97/51
f 77/97/52 79/95/52 80/78/52 78/76/52
f 11/98/53 12/96/53 77/97/53 75/99/53
f 75/99/54 77/97/54 78/76/54 76/74/54
f 10/100/55 11/98/55 75/99/55 73/101/55
f 73/101/56 75/99/56 76/74/56 74/72/56
f 9/102/57 10/100/57 73/101/57 71/103/57
f 71/103/58 73/101/58 74/72/58 72/69/58
f 1/104/59 9/102/59 71/103/59 45/105/59
f 45/105/60 71/103/60 72/69/60 46/68/60
f 34/67/61 35/16/61 69/106/61 67/107/61
f 67/107/62 69/106/62 70/17/62 68/49/62
f 33/65/63 34/67/63 67/107/63 65/108/63
f 65/108/64 67/107/64 68/49/64 66/48/64
f 32/63/65 33/65/65 65/108/65 63/109/65
f 63/109/66 65/108/66 66/48/66 64/47/66
f 31/61/67 32/63/67 63/109/67 61/110/67
f 61/110/68 63/109/68 64/47/68 62/46/68
f 30/59/69 31/61/69 61/110/69 59/111/69
f 59/111/70 61/110/70 62/46/70 60/45/70
f 29/57/71 30/59/71 59/111/71 57/112/71
f 57/112/72 59/111/72 60/45/72 58/44/72
f 28/55/73 29/57/73 57/112/73 55/113/73
f 55/113/74 57/112/74 58/44/74 56/43/74
f 27/52/75 28/55/75 55/113/75 53/114/75
f 53/114/76 55/113/76 56/43/76 54/42/76
f 3/53/77 27/52/77 53/114/77 47/115/77
f 47/115/78 53/114/78 54/42/78 48/41/78
f 35/16/79 7/15/79 51/116/79 69/106/79
f 69/106/80 51/116/80 52/18/80 70/17/80
f 17/87/81 5/117/81 49/118/81 87/88/81
f 87/88/82 49/118/82 50/10/82 88/9/82
f 94/119/2 8/120/2 52/121/2 133/122/2
f 133/122/2 52/121/2 51/6/2 135/5/2
f 90/123/1 138/124/1 48/125/1 4/126/1
f 138/124/1 140/1/1 47/4/1 48/125/1
f 45/127/1 46/128/1 139/129/1 137/130/1
f 137/130/1 139/129/1 140/1/1 138/124/1
f 1/131/1 45/127/1 137/130/1 89/132/1
f 89/132/1 137/130/1 138/124/1 90/123/1
f 49/133/2 134/134/2 136/135/2 50/136/2
f 134/134/2 133/122/2 135/5/2 136/135/2
f 5/137/2 93/138/2 134/134/2 49/133/2
f 93/138/2 94/119/2 133/122/2 134/134/2
f 25/85/83 26/12/83 131/139/83 129/140/83
f 129/140/84 131/139/84 132/13/84 130/66/84
f 24/83/85 25/85/85 129/140/85 127/141/85
f 127/141/86 129/140/86 130/66/86 128/64/86
f 23/81/87 24/83/87 127/141/87 125/142/87
f 125/142/88 127/141/88 128/64/88 126/62/88
f 22/79/89 23/81/89 125/142/89 123/143/89
f 123/143/90 125/142/90 126/62/90 124/60/90
f 21/77/91 22/79/91 123/143/91 121/144/91
f 121/144/92 123/143/92 124/60/92 122/58/92
f 20/75/93 21/77/93 121/144/93 119/145/93
f 119/145/94 121/144/94 122/58/94 120/56/94
f 19/73/95 20/75/95 119/145/95 117/146/95
f 117/146/96 119/145/96 120/56/96 118/54/96
f 18/70/97 19/73/97 117/146/97 115/147/97
f 115/147/98 117/146/98 118/54/98 116/51/98
f 2/71/99 18/70/99 115/147/99 91/148/99
f 91/148/100 115/147/100 116/51/100 92/50/100
f 10/100/101 9/102/101 113/149/101 111/150/101
f 111/151/102 113/152/102 114/21/102 112/39/102
f 11/98/103 10/100/103 111/150/103 109/153/103
f 109/154/104 111/151/104 112/39/104 110/37/104
f 12/96/105 11/98/105 109/153/105 107/155/105
f 107/156/106 109/154/106 110/37/106 108/35/106
f 13/94/107 12/96/107 107/155/107 105/157/107
f 105/158/108 107/156/108 108/35/108 106/33/108
f 14/92/109 13/94/109 105/157/109 103/159/109
f 103/160/110 105/158/110 106/33/110 104/31/110
f 15/90/111 14/92/111 103/159/111 101/161/111
f 101/162/112 103/160/112 104/31/112 102/29/112
f 16/86/113 15/90/113 101/161/113 99/163/113
f 99/164/114 101/162/114 102/29/114 100/27/114
f 17/87/115 16/86/115 99/163/115 97/165/115
f 97/166/116 99/164/116 100/27/116 98/26/116
f 5/117/117 17/87/117 97/165/117 93/167/117
f 93/168/118 97/166/118 98/26/118 94/25/118
f 9/102/119 1/104/119 89/169/119 113/149/119
f 113/152/120 89/170/120 90/22/120 114/21/120
f 26/12/121 6/11/121 95/171/121 131/139/121
f 131/139/122 95/171/122 96/14/122 132/13/122
f 50/136/2 136/135/2 95/172/2 6/173/2
f 136/135/2 135/5/2 96/8/2 95/172/2
f 46/128/1 2/174/1 91/175/1 139/129/1
f 139/129/1 91/175/1 92/2/1 140/1/1
